# xmcd
#
# Track frame offsets: 
#        150
#        10154
#        21877
#        32530
#        43927
#        56073
#        65921
#        76864
#        87372
#        98504
#        108838
#        119902
#        130569
#        141737
#        151503
#        163140
#        173431
#        184106
#        193682
#        202764
#        212619
#        223970
#        235138
#        244904
#        256541
#        266832
#        277507
#        287083
#        296165
#        306020
#
# Disc length: 4229 seconds
#
# Revision: 0
# Processed by: cddbd v1.5.2PL0 Copyright (c) Steve Scherf et al.
# Submitted via: ExactAudioCopyFreeDBPlugin 1.0
#
DISCID=ac10831e
DTITLE=Johnny Horton - Somebody`s Rockin`
DYEAR=1995
DGENRE=Country
TTITLE0=Candy Jones
TTITLE1=Devilish Love Light
TTITLE2=Happy Millionaire
TTITLE3=Mean Mean Son Of A Gun
TTITLE4=Done Rovin'
TTITLE5=Plaid And Calico
TTITLE6=Birds And Butterflies
TTITLE7=Coal Smoke Valve Oil And Steam
TTITLE8=Go And Wash Your Dirty Face
TTITLE9=In My Home In Shelby County
TTITLE10=Shadows On The Old Bayou
TTITLE11=Talk Gobbler Talk
TTITLE12=Smokey Joe's Barbecue
TTITLE13=Words
TTITLE14=It'S A Long Rocky Road
TTITLE15=On The Banks Of The Beautiful Nile
TTITLE16=Betty Lorraine
TTITLE17=Somebody's Rockin' My Broken Heart
TTITLE18=Bawlin' Baby
TTITLE19=Rhythm In My Baby's Walk
TTITLE20=First Train Headed South
TTITLE21=The Devil Sent Me You
TTITLE22=The Rest Of Your Life
TTITLE23=This Won't Be The First Time
TTITLE24=Tennessee Jive
TTITLE25=The Mansion You Stole
TTITLE26=I Won't Get Dreamy Eyed
TTITLE27=S.S. Lureline
TTITLE28=Two Red Lips And Warm Red Wine
TTITLE29=You,You,You
EXTD=
EXTT0=
EXTT1=
EXTT2=
EXTT3=
EXTT4=
EXTT5=
EXTT6=
EXTT7=
EXTT8=
EXTT9=
EXTT10=
EXTT11=
EXTT12=
EXTT13=
EXTT14=
EXTT15=
EXTT16=
EXTT17=
EXTT18=
EXTT19=
EXTT20=
EXTT21=
EXTT22=
EXTT23=
EXTT24=
EXTT25=
EXTT26=
EXTT27=
EXTT28=
EXTT29=
PLAYORDER=
